<?xml version="1.0" encoding="UTF-8"?>
<!-- Generated by Pixelmator Pro 3.6.8 -->
<svg width="120" height="120" viewBox="0 0 120 120" xmlns="http://www.w3.org/2000/svg">
    <path id="path1" fill="#063f66" stroke="none" d="M 119.903923 60.048038 C 119.903923 93.158592 93.062523 120 59.951962 120 C 26.841408 120 0 93.158592 0 60.048038 C 0 26.937485 26.841408 0.096077 59.951962 0.096077 C 93.062523 0.096077 119.903923 26.937485 119.903923 60.048038 Z"/>
    <path id="path2" fill="#022730" stroke="none" d="M 17.485991 17.582062 C 40.928741 -5.860687 78.975174 -5.860687 102.417931 17.582062 C 125.860687 41.024818 125.860687 79.071259 102.417931 102.514008"/>
    <g id="g1">
        <path id="path3" fill="#dcf9f6" stroke="none" d="M 32.666134 102.129707 C 32.666134 104.995041 32.408039 107.317848 32.089672 107.317848 C 31.771303 107.317848 31.513208 104.995041 31.513208 102.129707 C 31.513208 99.264374 31.771303 96.941559 32.089672 96.941559 C 32.408039 96.941559 32.666134 99.264374 32.666134 102.129707 Z"/>
        <path id="path4" fill="#dcf9f6" stroke="none" d="M 37.277821 102.321854 C 37.277821 102.640228 34.955009 102.898315 32.089672 102.898315 C 29.224335 102.898315 26.901522 102.640228 26.901522 102.321854 C 26.901522 102.003494 29.224335 101.745399 32.089672 101.745399 C 34.955009 101.745399 37.277821 102.003494 37.277821 102.321854 Z"/>
        <path id="path5" fill="#dcf9f6" stroke="none" d="M 106.09478 32.587379 C 106.32045 32.811958 104.864861 34.640434 102.843651 36.671387 C 100.822449 38.702332 99.000999 40.166687 98.775337 39.942108 C 98.549667 39.717529 100.005249 37.889061 102.026459 35.858109 C 104.047668 33.827164 105.869118 32.362801 106.09478 32.587379 Z"/>
        <path id="path6" fill="#dcf9f6" stroke="none" d="M 106.035324 40.004646 C 105.809662 40.229225 103.988213 38.764877 101.967003 36.733925 C 99.945793 34.702972 98.490219 32.874496 98.715881 32.649918 C 98.941544 32.425339 100.762993 33.889702 102.784195 35.920654 C 104.805405 37.951599 106.260994 39.780067 106.035324 40.004646 Z"/>
        <path id="path7" fill="#dcf9f6" stroke="none" d="M 88.198563 20.272217 C 88.198563 21.5457 88.112534 22.578064 88.006401 22.578064 C 87.900276 22.578064 87.814255 21.5457 87.814255 20.272217 C 87.814255 18.998741 87.900276 17.96637 88.006401 17.96637 C 88.112534 17.96637 88.198563 18.998741 88.198563 20.272217 Z"/>
        <path id="path8" fill="#dcf9f6" stroke="none" d="M 90.312248 20.272217 C 90.312248 20.378342 89.279892 20.464371 88.006401 20.464371 C 86.732925 20.464371 85.700554 20.378342 85.700554 20.272217 C 85.700554 20.166092 86.732925 20.080063 88.006401 20.080063 C 89.279892 20.080063 90.312248 20.166092 90.312248 20.272217 Z"/>
        <path id="path9" fill="#dcf9f6" stroke="none" d="M 41.071693 22.960129 C 41.146355 22.884697 42.001717 23.610344 42.982204 24.580902 C 43.962688 25.551453 44.697006 26.399384 44.622349 26.474808 C 44.547691 26.550232 43.692329 25.824585 42.711842 24.854034 C 41.731358 23.883469 40.997036 23.035545 41.071693 22.960129 Z"/>
        <path id="path10" fill="#dcf9f6" stroke="none" d="M 44.647572 22.920395 C 44.722233 22.995811 43.987911 23.84375 43.007423 24.814301 C 42.026939 25.784851 41.171577 26.510498 41.09692 26.435074 C 41.022263 26.35965 41.75658 25.511719 42.737064 24.541168 C 43.717552 23.570618 44.572914 22.844963 44.647572 22.920395 Z"/>
        <path id="path11" fill="#dcf9f6" stroke="none" d="M 21.424347 86.014618 C 21.499199 85.939384 22.352701 86.667206 23.330704 87.640244 C 24.308706 88.613274 25.040861 89.463058 24.966009 89.5383 C 24.891161 89.613525 24.037653 88.885712 23.05965 87.912674 C 22.081648 86.939636 21.349499 86.089844 21.424347 86.014618 Z"/>
        <path id="path12" fill="#dcf9f6" stroke="none" d="M 25.102398 85.955597 C 25.177246 86.03083 24.445093 86.880615 23.467091 87.853653 C 22.489086 88.826691 21.635584 89.554504 21.560736 89.479271 C 21.485884 89.404037 22.218039 88.55426 23.196041 87.581223 C 24.174044 86.608185 25.027546 85.880363 25.102398 85.955597 Z"/>
        <path id="path13" fill="#dcf9f6" stroke="none" d="M 73.682678 17.161453 C 73.758476 17.235718 73.458649 17.664642 73.012993 18.119469 C 72.567337 18.574295 72.144615 18.88279 72.06881 18.80851 C 71.993004 18.734238 72.292824 18.305321 72.73848 17.850494 C 73.184135 17.395668 73.606873 17.087173 73.682678 17.161453 Z"/>
        <path id="path14" fill="#dcf9f6" stroke="none" d="M 73.707016 18.895935 C 73.63121 18.970215 73.208488 18.661713 72.762833 18.206894 C 72.317177 17.752068 72.017349 17.323143 72.093155 17.248871 C 72.168961 17.174599 72.59169 17.483093 73.037346 17.93792 C 73.483002 18.392746 73.782822 18.821655 73.707016 18.895935 Z"/>
        <path id="path15" fill="#dcf9f6" stroke="none" d="M 52.57056 106.480629 C 52.645985 106.555283 52.34399 106.982651 51.896046 107.435181 C 51.448097 107.887718 51.023827 108.194046 50.948402 108.119392 C 50.872978 108.044731 51.174965 107.617355 51.622917 107.164825 C 52.070862 106.712296 52.49514 106.405968 52.57056 106.480629 Z"/>
        <path id="path16" fill="#dcf9f6" stroke="none" d="M 52.645332 108.236305 C 52.569908 108.310959 52.145638 108.004631 51.697685 107.552094 C 51.249737 107.099564 50.947746 106.672195 51.023167 106.597534 C 51.098595 106.522881 51.522861 106.829208 51.97081 107.281738 C 52.418762 107.734276 52.720753 108.161644 52.645332 108.236305 Z"/>
        <path id="path17" fill="#dcf9f6" stroke="none" d="M 98.382706 60.048038 C 98.382706 81.272751 81.176666 98.478783 59.951962 98.478783 C 38.727245 98.478783 21.521217 81.272751 21.521217 60.048038 C 21.521217 38.823318 38.727245 21.617294 59.951962 21.617294 C 81.176666 21.617294 98.382706 38.823318 98.382706 60.048038 Z"/>
    </g>
    <path id="path18" fill="#95bfb9" stroke="none" d="M 59.951962 98.478783 C 38.815056 98.478783 21.521217 81.184944 21.521217 60.048038 C 21.521217 38.911133 38.815056 21.617294 59.951962 21.617294"/>
    <path id="path19" fill="#caede7" stroke="none" d="M 59.951962 98.478783 C 38.815056 98.478783 33.050442 81.184944 33.050442 60.048038 C 33.050442 38.911133 38.622898 21.617294 59.951962 21.617294"/>
    <g id="g2">
        <path id="path20" fill="#78a8a0" stroke="none" d="M 35.548439 39.679741 C 35.548439 40.953232 34.516075 41.985588 33.242592 41.985588 C 31.969112 41.985588 30.936749 40.953232 30.936749 39.679741 C 30.936749 38.406265 31.969112 37.373901 33.242592 37.373901 C 34.516075 37.373901 35.548439 38.406265 35.548439 39.679741 Z"/>
        <path id="path21" fill="#78a8a0" stroke="none" d="M 30.360287 48.32666 C 30.360287 48.53891 30.188229 48.710968 29.975981 48.710968 C 29.763735 48.710968 29.591673 48.53891 29.591673 48.32666 C 29.591673 48.11441 29.763735 47.942352 29.975981 47.942352 C 30.188229 47.942352 30.360287 48.11441 30.360287 48.32666 Z"/>
    </g>
    <g id="g3">
        <path id="path22" fill="#dcf9f6" stroke="none" d="M 52.65012 53.322655 C 52.65012 57.249229 49.467003 60.43235 45.540436 60.43235 C 41.613857 60.43235 38.430744 57.249229 38.430744 53.322655 C 38.430744 49.396088 41.613857 46.212967 45.540436 46.212967 C 49.467003 46.212967 52.65012 49.396088 52.65012 53.322655 Z"/>
        <path id="path23" fill="#dcf9f6" stroke="none" d="M 50.536427 37.758209 C 50.536427 38.819443 49.676128 39.679741 48.614891 39.679741 C 47.553658 39.679741 46.693356 38.819443 46.693356 37.758209 C 46.693356 36.696976 47.553658 35.83667 48.614891 35.83667 C 49.676128 35.83667 50.536427 36.696976 50.536427 37.758209 Z"/>
    </g>
    <path id="path24" fill="#c3e5e0" stroke="none" d="M 62.449959 36.797432 C 62.449959 37.115807 62.191868 37.373901 61.873497 37.373901 C 61.555122 37.373901 61.297035 37.115807 61.297035 36.797432 C 61.297035 36.479065 61.555122 36.220978 61.873497 36.220978 C 62.191868 36.220978 62.449959 36.479065 62.449959 36.797432 Z"/>
    <path id="path25" fill="#78a8a0" stroke="none" d="M 67.445953 30.264214 C 67.445953 30.582588 67.187866 30.840675 66.869492 30.840675 C 66.551125 30.840675 66.29303 30.582588 66.29303 30.264214 C 66.29303 29.945839 66.551125 29.687752 66.869492 29.687752 C 67.187866 29.687752 67.445953 29.945839 67.445953 30.264214 Z"/>
    <path id="path26" fill="#dcf9f6" stroke="none" d="M 49.383507 30.648521 C 49.383507 31.179138 48.953358 31.609283 48.422741 31.609283 C 47.89212 31.609283 47.461971 31.179138 47.461971 30.648521 C 47.461971 30.117905 47.89212 29.687752 48.422741 29.687752 C 48.953358 29.687752 49.383507 30.117905 49.383507 30.648521 Z"/>
    <path id="path27" fill="#95bfb9" stroke="none" d="M 56.493195 27.381905 C 56.493195 27.594147 56.321136 27.766212 56.108891 27.766212 C 55.896637 27.766212 55.724579 27.594147 55.724579 27.381905 C 55.724579 27.169655 55.896637 26.997604 56.108891 26.997604 C 56.321136 26.997604 56.493195 27.169655 56.493195 27.381905 Z"/>
    <g id="g4">
        <path id="path28" fill="#c3e5e0" stroke="none" d="M 66.485184 49.479584 C 66.485184 50.328568 65.796951 51.016815 64.94796 51.016815 C 64.098969 51.016815 63.410728 50.328568 63.410728 49.479584 C 63.410728 48.6306 64.098969 47.942352 64.94796 47.942352 C 65.796951 47.942352 66.485184 48.6306 66.485184 49.479584 Z"/>
        <path id="path29" fill="#c3e5e0" stroke="none" d="M 77.43795 48.518814 C 77.43795 49.049431 77.007797 49.479584 76.47718 49.479584 C 75.946564 49.479584 75.516411 49.049431 75.516411 48.518814 C 75.516411 47.988197 75.946564 47.558044 76.47718 47.558044 C 77.007797 47.558044 77.43795 47.988197 77.43795 48.518814 Z"/>
        <path id="path30" fill="#c3e5e0" stroke="none" d="M 80.512405 37.566055 C 80.512405 38.415039 79.824173 39.103279 78.975174 39.103279 C 78.126198 39.103279 77.43795 38.415039 77.43795 37.566055 C 77.43795 36.717056 78.126198 36.028824 78.975174 36.028824 C 79.824173 36.028824 80.512405 36.717056 80.512405 37.566055 Z"/>
        <path id="path31" fill="#c3e5e0" stroke="none" d="M 76.47718 68.502808 C 76.47718 70.837517 74.584518 72.730179 72.249794 72.730179 C 69.915085 72.730179 68.022423 70.837517 68.022423 68.502808 C 68.022423 66.168091 69.915085 64.275421 72.249794 64.275421 C 74.584518 64.275421 76.47718 66.168091 76.47718 68.502808 Z"/>
    </g>
    <g id="g5">
        <path id="path32" fill="#dcf9f6" stroke="none" d="M 38.815056 71.000801 C 38.815056 71.74366 38.212837 72.345886 37.469975 72.345886 C 36.727112 72.345886 36.124897 71.74366 36.124897 71.000801 C 36.124897 70.257935 36.727112 69.655724 37.469975 69.655724 C 38.212837 69.655724 38.815056 70.257935 38.815056 71.000801 Z"/>
        <path id="path33" fill="#dcf9f6" stroke="none" d="M 51.881508 65.236191 C 51.881508 65.554558 51.623413 65.812653 51.305046 65.812653 C 50.986675 65.812653 50.728584 65.554558 50.728584 65.236191 C 50.728584 64.917816 50.986675 64.659729 51.305046 64.659729 C 51.623413 64.659729 51.881508 64.917816 51.881508 65.236191 Z"/>
        <path id="path34" fill="#dcf9f6" stroke="none" d="M 60.336269 79.64772 C 60.336269 80.921204 59.303905 81.953568 58.030426 81.953568 C 56.756943 81.953568 55.724579 80.921204 55.724579 79.64772 C 55.724579 78.374237 56.756943 77.341873 58.030426 77.341873 C 59.303905 77.341873 60.336269 78.374237 60.336269 79.64772 Z"/>
    </g>
    <path id="path35" fill="#78a8a0" stroke="none" d="M 31.513208 61.200962 C 31.513208 62.04995 30.82497 62.73819 29.975981 62.73819 C 29.126991 62.73819 28.438751 62.04995 28.438751 61.200962 C 28.438751 60.351974 29.126991 59.663731 29.975981 59.663731 C 30.82497 59.663731 31.513208 60.351974 31.513208 61.200962 Z"/>
    <path id="path36" fill="#c3e5e0" stroke="none" d="M 64.563644 60.240192 C 64.563644 60.452438 64.391586 60.6245 64.179344 60.6245 C 63.967094 60.6245 63.79504 60.452438 63.79504 60.240192 C 63.79504 60.027946 63.967094 59.855881 64.179344 59.855881 C 64.391586 59.855881 64.563644 60.027946 64.563644 60.240192 Z"/>
    <path id="path37" fill="#95bfb9" stroke="none" d="M 83.586868 61.008804 C 83.586868 61.539421 83.156715 61.969574 82.626106 61.969574 C 82.095482 61.969574 81.665329 61.539421 81.665329 61.008804 C 81.665329 60.478188 82.095482 60.048038 82.626106 60.048038 C 83.156715 60.048038 83.586868 60.478188 83.586868 61.008804 Z"/>
    <g id="g6">
        <path id="path38" fill="#dcf9f6" stroke="none" d="M 44.195358 81.56926 C 44.195358 82.842743 43.162994 83.875107 41.889511 83.875107 C 40.616028 83.875107 39.583668 82.842743 39.583668 81.56926 C 39.583668 80.295776 40.616028 79.263412 41.889511 79.263412 C 43.162994 79.263412 44.195358 80.295776 44.195358 81.56926 Z"/>
        <path id="path39" fill="#dcf9f6" stroke="none" d="M 47.269817 73.306648 C 47.269817 73.73114 46.925694 74.075256 46.501205 74.075256 C 46.076706 74.075256 45.732586 73.73114 45.732586 73.306648 C 45.732586 72.882149 46.076706 72.538033 46.501205 72.538033 C 46.925694 72.538033 47.269817 72.882149 47.269817 73.306648 Z"/>
    </g>
    <path id="path40" fill="#c3e5e0" stroke="none" d="M 71.096878 82.337868 C 71.096878 82.762367 70.752762 83.106483 70.328262 83.106483 C 69.90377 83.106483 69.559647 82.762367 69.559647 82.337868 C 69.559647 81.913376 69.90377 81.56926 70.328262 81.56926 C 70.752762 81.56926 71.096878 81.913376 71.096878 82.337868 Z"/>
    <g id="g7">
        <path id="path41" fill="#95bfb9" stroke="none" d="M 58.606884 88.678947 C 58.606884 88.997314 58.348793 89.255402 58.030426 89.255402 C 57.712055 89.255402 57.453964 88.997314 57.453964 88.678947 C 57.453964 88.360573 57.712055 88.102478 58.030426 88.102478 C 58.348793 88.102478 58.606884 88.360573 58.606884 88.678947 Z"/>
        <path id="path42" fill="#95bfb9" stroke="none" d="M 48.807045 87.718178 C 48.807045 87.93042 48.634987 88.102478 48.422741 88.102478 C 48.210487 88.102478 48.038429 87.93042 48.038429 87.718178 C 48.038429 87.505928 48.210487 87.333862 48.422741 87.333862 C 48.634987 87.333862 48.807045 87.505928 48.807045 87.718178 Z"/>
        <path id="path43" fill="#95bfb9" stroke="none" d="M 81.473183 78.879105 C 81.473183 79.728096 80.784935 80.416328 79.935944 80.416328 C 79.08696 80.416328 78.39872 79.728096 78.39872 78.879105 C 78.39872 78.030121 79.08696 77.341873 79.935944 77.341873 C 80.784935 77.341873 81.473183 78.030121 81.473183 78.879105 Z"/>
    </g>
    <path id="path44" fill="#c3e5e0" stroke="none" d="M 69.175339 90.216171 C 69.175339 90.746796 68.745193 91.176941 68.214577 91.176941 C 67.683952 91.176941 67.253799 90.746796 67.253799 90.216171 C 67.253799 89.685562 67.683952 89.255402 68.214577 89.255402 C 68.745193 89.255402 69.175339 89.685562 69.175339 90.216171 Z"/>
    <path id="path45" fill="#dcf9f6" stroke="none" d="M 59.759808 69.463577 C 59.759808 69.888062 59.415688 70.232185 58.991196 70.232185 C 58.566696 70.232185 58.222576 69.888062 58.222576 69.463577 C 58.222576 69.039078 58.566696 68.694954 58.991196 68.694954 C 59.415688 68.694954 59.759808 69.039078 59.759808 69.463577 Z"/>
    <path id="path46" fill="#95bfb9" stroke="none" d="M 86.469177 72.153717 C 86.469177 73.002716 85.78093 73.690948 84.931946 73.690948 C 84.082954 73.690948 83.394714 73.002716 83.394714 72.153717 C 83.394714 71.304733 84.082954 70.616493 84.931946 70.616493 C 85.78093 70.616493 86.469177 71.304733 86.469177 72.153717 Z"/>
    <path id="path47" fill="#78a8a0" stroke="none" d="M 33.6269 77.726181 C 33.6269 78.46904 33.024693 79.071259 32.281822 79.071259 C 31.53896 79.071259 30.936749 78.46904 30.936749 77.726181 C 30.936749 76.983315 31.53896 76.381104 32.281822 76.381104 C 33.024693 76.381104 33.6269 76.983315 33.6269 77.726181 Z"/>
    <path id="path48" fill="#c3e5e0" stroke="none" d="M 76.092873 57.934345 C 76.092873 58.889462 75.318604 59.663731 74.363495 59.663731 C 73.408371 59.663731 72.634109 58.889462 72.634109 57.934345 C 72.634109 56.979237 73.408371 56.204964 74.363495 56.204964 C 75.318604 56.204964 76.092873 56.979237 76.092873 57.934345 Z"/>
</svg>
